<?xml version="1.0" ?><!DOCTYPE svg  PUBLIC '-//W3C//DTD SVG 1.1//EN'  'http://www.w3.org/Graphics/SVG/1.1/DTD/svg11.dtd'><svg enable-background="new 0 0 128 128" id="Слой_1" version="1.1" viewBox="0 0 128 128" xml:space="preserve" xmlns="http://www.w3.org/2000/svg" xmlns:xlink="http://www.w3.org/1999/xlink"><path d="M113.3,114.6l-10.1,8.4c-0.7,0.6-1.7,0.6-2.4,0.1l-12.6-8.4c-0.7-0.4-1.5-0.4-2.2,0l-12.8,8.5  c-0.7,0.4-1.5,0.4-2.2,0l-12.8-8.5c-0.7-0.4-1.5-0.4-2.2,0l-12.8,8.5c-0.7,0.4-1.5,0.4-2.2,0l-12.7-8.5c-0.7-0.5-1.6-0.4-2.3,0.1  l-8.6,6.7c-1.3,1-3.2,0.1-3.2-1.6V14c0-5.5,4.5-10,10-10h80c5.5,0,10,4.5,10,10v99.1C114,113.7,113.7,114.2,113.3,114.6z" fill="#FFFFFF"/><path d="M39,4H24c-5.5,0-10,4.5-10,10v105.9c0,1.7,1.9,2.6,3.2,1.6l8.6-6.7c0.7-0.5,1.6-0.6,2.3-0.1l0.8,0.5V14  C29,8.5,33.5,4,39,4z" fill="#E5E6E6"/><path d="M104,2.5H24c-6.3,0-11.5,5.2-11.5,11.5v105.9c0,1,0.4,1.9,1.1,2.5c1.2,1.1,3.2,1.3,4.5,0.2l8.6-6.7  c0.2-0.2,0.4-0.2,0.6,0l12.7,8.5c1.2,0.8,2.7,0.8,3.9,0l12.8-8.5c0.2-0.1,0.3-0.1,0.6,0l12.8,8.5c0.6,0.4,1.2,0.6,1.9,0.6  c0.7,0,1.4-0.2,1.9-0.6l12.8-8.5c0.2-0.1,0.3-0.1,0.6,0l12.6,8.4c1.3,0.8,3,0.7,4.2-0.2l10.1-8.4c0.8-0.7,1.3-1.6,1.3-2.7V14  C115.5,7.7,110.3,2.5,104,2.5z M112.5,113.1c0,0.1-0.1,0.3-0.2,0.4l-10.1,8.4c-0.1,0.1-0.3,0.2-0.6,0l-12.6-8.4  c-1.2-0.8-2.7-0.8-3.9,0L72.3,122c-0.2,0.1-0.3,0.1-0.6,0l-12.8-8.5c-0.6-0.4-1.2-0.6-1.9-0.6c-0.7,0-1.4,0.2-1.9,0.6L42.3,122  c-0.2,0.1-0.3,0.1-0.6,0L29,113.5c-1.2-0.8-2.9-0.8-4.1,0.1l-8.6,6.7c-0.2,0.2-0.5,0.1-0.7,0c-0.1-0.1-0.1-0.2-0.1-0.4V14  c0-4.7,3.8-8.5,8.5-8.5h80c4.7,0,8.5,3.8,8.5,8.5V113.1z" fill="#4A374F"/><path d="M94,22.5H34c-0.8,0-1.5,0.7-1.5,1.5s0.7,1.5,1.5,1.5h60c0.8,0,1.5-0.7,1.5-1.5S94.8,22.5,94,22.5z" fill="#4A374F"/><path d="M94,42.5H34c-0.8,0-1.5,0.7-1.5,1.5s0.7,1.5,1.5,1.5h60c0.8,0,1.5-0.7,1.5-1.5S94.8,42.5,94,42.5z" fill="#4A374F"/><path d="M94,62.5H34c-0.8,0-1.5,0.7-1.5,1.5s0.7,1.5,1.5,1.5h60c0.8,0,1.5-0.7,1.5-1.5S94.8,62.5,94,62.5z" fill="#4A374F"/><path d="M64,82.5H34c-0.8,0-1.5,0.7-1.5,1.5s0.7,1.5,1.5,1.5h30c0.8,0,1.5-0.7,1.5-1.5S64.8,82.5,64,82.5z" fill="#4A374F"/></svg>